<?xml version="1.0" encoding="iso-8859-1"?>
<!-- Generator: Adobe Illustrator 19.1.1, SVG Export Plug-In . SVG Version: 6.00 Build 0)  -->
<svg version="1.1" id="Layer_1" xmlns="http://www.w3.org/2000/svg" xmlns:xlink="http://www.w3.org/1999/xlink" x="0px" y="0px"
	 viewBox="-113.992 141 683.66 512" style="enable-background:new -113.992 141 683.66 512;" xml:space="preserve">
<g>
	<path style="fill:#00B0CA;" d="M255.447,437.036l164.669-63.093c0,36.032,0,65.618,0,76.801
		c0,54.121-152.224,96.183-192.282,96.183S35.55,503.53,35.55,450.744c0-11.162,0-40.705,0-76.697l163.428,62.947
		c9.055,3.484,18.579,5.258,28.292,5.258c0.136,0,0.26-0.04,0.397-0.04c0.063,0,0.115,0.021,0.167,0.021
		c4.11,0,8.179-0.397,12.185-1.146C245.265,440.229,250.439,438.956,255.447,437.036z M561.134,598.754
		c-13.376-5.277-50.367-11.891-61.947-59.294c7.117-5.886,11.728-14.648,11.728-24.58c0-11.829-6.488-22.054-16.024-27.603V320.135
		l63.875-24.473c6.583-2.525,10.901-8.764,10.901-15.731c0.021-6.948-4.309-13.186-10.88-15.731l-311.134-119.53
		c-12.737-4.882-26.862-4.903-39.6,0l-311.156,119.363c-6.572,2.525-10.891,8.764-10.891,15.711
		c-0.021,6.948,4.298,13.186,10.871,15.731l310.54,119.593c12.737,4.903,26.873,4.925,39.621,0.023l215.805-82.687v154.873
		c-9.535,5.549-16.024,15.774-16.024,27.603c0,11.976,6.635,22.283,16.336,27.791c2.648,72.982,21.905,101.315,33.987,109.536
		C513.126,663.182,596.144,612.523,561.134,598.754z"/>
</g>
</svg>
