<?xml version="1.0" encoding="iso-8859-1"?>
<!-- Generator: Adobe Illustrator 19.1.1, SVG Export Plug-In . SVG Version: 6.00 Build 0)  -->
<svg version="1.1" id="Layer_1" xmlns="http://www.w3.org/2000/svg" xmlns:xlink="http://www.w3.org/1999/xlink" x="0px" y="0px"
	 viewBox="-49 141 512 512" style="enable-background:new -49 141 512 512;" xml:space="preserve">
<g>
	<path style="fill:#00B0CA;" d="M227.68,442.703L351,395.453c0,26.984,0,49.141,0,57.516C351,493.5,237,525,207,525
		S63,492.5,63,452.969c0-8.359,0-30.484,0-57.438l122.391,47.141c6.781,2.609,13.914,3.938,21.188,3.938
		c0.102,0,0.195-0.03,0.297-0.03c0.047,0,0.086,0.016,0.125,0.016c3.078,0,6.125-0.297,9.125-0.858
		C220.055,445.094,223.93,444.141,227.68,442.703z M456.609,563.813c-10.017-3.952-37.72-8.905-46.392-44.405
		C415.547,515,419,508.438,419,501c0-8.859-4.859-16.516-12-20.672V355.156l47.836-18.328c4.93-1.891,8.164-6.563,8.164-11.781
		c0.016-5.203-3.227-9.875-8.148-11.781L221.844,223.75c-9.539-3.656-20.117-3.672-29.656,0l-233.024,89.391
		c-4.922,1.891-8.156,6.563-8.156,11.766c-0.016,5.203,3.219,9.875,8.141,11.781l232.563,89.563
		c9.539,3.672,20.125,3.688,29.672,0.017L383,364.344v115.984c-7.141,4.156-12,11.813-12,20.672c0,8.969,4.969,16.688,12.234,20.813
		c1.983,54.656,16.405,75.875,25.453,82.031C420.656,612.063,482.828,574.125,456.609,563.813z"/>
</g>
</svg>
