<?xml version="1.0" encoding="iso-8859-1"?>
<!-- Generator: Adobe Illustrator 19.1.1, SVG Export Plug-In . SVG Version: 6.00 Build 0)  -->
<svg version="1.1" id="Layer_1" xmlns="http://www.w3.org/2000/svg" xmlns:xlink="http://www.w3.org/1999/xlink" x="0px" y="0px"
	 viewBox="-293 385 24 24" style="enable-background:new -293 385 24 24;" xml:space="preserve">
<path style="fill:#00B0CA;" d="M-270.766,397.471c2.356-2.499,2.355-6.547,0-9.045c-1.203-1.276-2.79-1.901-4.366-1.874
	c-2.207,0.039-5.846,3.135-5.846,3.135s-3.741-3.14-6.002-3.136c-1.54,0.003-3.08,0.627-4.254,1.875
	c-2.355,2.498-2.356,6.546,0,9.045l10.234,10.85L-270.766,397.471z M-275.238,399.009h-4.452v4.607c0,0.15-0.117,0.271-0.262,0.271
	h-2.095c-0.145,0-0.262-0.121-0.262-0.271v-4.607h-4.452c-0.145,0-0.262-0.121-0.262-0.271v-2.168c0-0.15,0.117-0.271,0.262-0.271
	h4.452v-4.607c0-0.15,0.117-0.271,0.262-0.271h2.095c0.145,0,0.262,0.121,0.262,0.271v4.607h4.452c0.145,0,0.262,0.121,0.262,0.271
	v2.168C-274.976,398.888-275.094,399.009-275.238,399.009z"/>
</svg>
