<?xml version="1.0" encoding="utf-8"?>
<!-- Generator: Adobe Illustrator 19.1.1, SVG Export Plug-In . SVG Version: 6.00 Build 0)  -->
<svg version="1.1" id="Layer_1" xmlns="http://www.w3.org/2000/svg" xmlns:xlink="http://www.w3.org/1999/xlink" x="0px" y="0px"
	 viewBox="-467 271.2 24 21.8" style="enable-background:new -467 271.2 24 21.8;" xml:space="preserve">
<style type="text/css">
	.st0{fill:#00B0CA;}
</style>
<path class="st0" d="M-444.8,282.1c2.4-2.5,2.4-6.5,0-9c-1.2-1.3-2.8-1.9-4.4-1.9c-2.2,0-5.8,3.1-5.8,3.1s-3.7-3.1-6-3.1
	c-1.5,0-3.1,0.6-4.3,1.9c-2.4,2.5-2.4,6.5,0,9L-455,293L-444.8,282.1z M-449.1,283.5h-4.6v4.7c0,0.2-0.1,0.3-0.3,0.3h-2.1
	c-0.1,0-0.3-0.1-0.3-0.3v-4.7h-4.6c-0.1,0-0.3-0.1-0.3-0.3V281c0-0.2,0.1-0.3,0.3-0.3h4.6V276c0-0.2,0.1-0.3,0.3-0.3h2.1
	c0.1,0,0.3,0.1,0.3,0.3v4.7h4.6c0.1,0,0.3,0.1,0.3,0.3v2.2C-448.8,283.4-448.9,283.5-449.1,283.5z"/>
</svg>
