<?xml version="1.0" encoding="iso-8859-1"?>
<!-- Generator: Adobe Illustrator 19.1.1, SVG Export Plug-In . SVG Version: 6.00 Build 0)  -->
<svg version="1.1" id="Layer_1" xmlns="http://www.w3.org/2000/svg" xmlns:xlink="http://www.w3.org/1999/xlink" x="0px" y="0px"
	 viewBox="-241 333 128 128" style="enable-background:new -241 333 128 128;" xml:space="preserve">
<g>
	<path style="fill:#00B0CA;" d="M-241.002,387.632v16.001c0,2.2,1.786,4.225,3.969,4.496l8.062,1.007
		c0.086,0.011,0.167,0,0.252,0.007c2.469,7.121,6.843,13.502,12.589,18.688l-2.351,17.832c-0.289,2.181,1.276,3.965,3.477,3.965
		h17.998c2.199,0,4.232-1.784,4.521-3.965l0.717-5.432c4.082,0.912,8.356,1.396,12.759,1.396c6.173,0,12.092-0.957,17.586-2.703
		l0.889,6.737c0.288,2.181,2.322,3.965,4.522,3.965h17.998c2.199,0,3.765-1.784,3.477-3.965l-2.947-22.351
		c6.068-7.115,9.858-15.832,10.401-25.312c0.271-0.044,0.541-0.097,0.817-0.188c2.211-0.746,4.445-1.748,6.475-3.462
		c0.303-0.259,0.596-0.544,0.882-0.842c0.104-0.017,0.208-0.02,0.312-0.042c1.236-0.262,2.308-0.957,3.1-1.777
		c0.79-0.811,1.415-1.801,1.787-2.836c0.75-2.072,0.803-4.204,0.625-6.254c-0.119-1.209-0.327-1.792-0.424-1.776
		c-0.105,0.015-0.104,0.614-0.143,1.793c-0.08,1.995-0.43,4.014-1.303,5.688c-0.457,0.881-1.139,1.662-1.91,2.215
		c0.49-1.098,0.784-2.288,0.84-3.438c0.059-1.34-0.074-2.739-0.699-4.173c-0.598-1.405-1.848-2.813-3.553-3.359
		c-1.682-0.579-3.609-0.187-4.884,0.824l-0.237,0.19l-0.112,0.096l-0.034,0.034l-0.068,0.067c-0.062,0.059-0.236,0.236-0.395,0.412
		c-0.286,0.327-0.485,0.623-0.678,0.959c-0.367,0.658-0.6,1.35-0.721,2.022c-0.238,1.35-0.113,2.627,0.221,3.816
		c0.265,0.918,0.647,1.798,1.223,2.61c-0.426,0.138-0.867,0.259-1.32,0.364c-2.656-23.199-24.801-41.304-51.726-41.304
		c-6.597,0-12.899,1.098-18.705,3.08c-9.813-5.814-21.375-8.255-21.375-8.255c-2.151-0.453-3.412,0.904-2.802,3.018l4.861,16.792
		c-5.303,5.03-9.352,11.108-11.689,17.851c-0.085,0.006-0.166-0.005-0.252,0.006l-8.062,1.008
		C-239.216,383.41-241.002,385.433-241.002,387.632z M-123.756,385.004c0.107-0.317,0.257-0.582,0.421-0.788
		c0.077-0.095,0.187-0.206,0.25-0.248c0.021-0.006,0.019-0.014,0.155-0.115l0.076-0.058l0.037-0.027l0.008-0.007
		c-0.002,0.002,0,0,0,0c-0.01,0.008-0.026,0.022-0.057,0.047l0.008-0.004l0.07-0.036c0.376-0.181,0.693-0.116,0.92,0.035
		c0.227,0.154,0.422,0.428,0.54,0.911c0.122,0.464,0.122,1.153-0.013,1.826c-0.244,1.155-0.876,1.983-1.879,2.709
		C-123.952,388.073-124.188,386.223-123.756,385.004z M-190.047,357.289c0.523-0.277,3.615-1.658,12.992-1.658
		c8.452,0,12.88,2.231,13.065,2.326c0.979,0.503,1.36,1.699,0.862,2.68c-0.353,0.694-1.058,1.093-1.787,1.093
		c-0.302,0-0.608-0.068-0.896-0.212c-0.039-0.018-3.861-1.887-11.245-1.887c-8.415,0-11.12,1.196-11.125,1.196l0,0
		c-0.977,0.517-2.186,0.142-2.702-0.835C-191.398,359.015-191.023,357.805-190.047,357.289z M-215.01,375.214c0-2.209,1.791-4,4-4
		s4,1.791,4,4c0,2.209-1.791,4-4,4C-213.219,379.214-215.01,377.423-215.01,375.214z"/>
</g>
</svg>
