<?xml version="1.0" encoding="iso-8859-1"?>
<!-- Generator: Adobe Illustrator 19.1.1, SVG Export Plug-In . SVG Version: 6.00 Build 0)  -->
<svg version="1.1" id="Layer_1" xmlns="http://www.w3.org/2000/svg" xmlns:xlink="http://www.w3.org/1999/xlink" x="0px" y="0px"
	 viewBox="-254.832 333 155.665 128" style="enable-background:new -254.832 333 155.665 128;" xml:space="preserve">
<g>
	<path style="fill:#00B0CA;" d="M-254.832,385.606v19.459c0,2.675,2.172,5.138,4.827,5.468l9.804,1.225
		c0.105,0.013,0.203,0,0.306,0.009c3.003,8.66,8.322,16.42,15.31,22.727l-2.859,21.686c-0.351,2.652,1.552,4.822,4.228,4.822h21.888
		c2.674,0,5.147-2.17,5.498-4.822l0.872-6.606c4.964,1.109,10.162,1.698,15.516,1.698c7.507,0,14.705-1.164,21.387-3.287
		l1.081,8.193c0.35,2.652,2.824,4.822,5.499,4.822h21.888c2.674,0,4.579-2.17,4.228-4.822l-3.584-27.181
		c7.379-8.653,11.988-19.254,12.649-30.782c0.33-0.053,0.658-0.118,0.994-0.229c2.689-0.907,5.406-2.126,7.874-4.21
		c0.368-0.315,0.725-0.662,1.073-1.024c0.126-0.021,0.253-0.024,0.379-0.051c1.503-0.319,2.807-1.164,3.77-2.161
		c0.961-0.986,1.721-2.19,2.173-3.449c0.912-2.52,0.977-5.113,0.76-7.606c-0.145-1.47-0.398-2.179-0.516-2.16
		c-0.128,0.018-0.126,0.747-0.174,2.181c-0.097,2.426-0.523,4.881-1.585,6.917c-0.556,1.071-1.385,2.021-2.323,2.694
		c0.596-1.335,0.953-2.782,1.022-4.181c0.072-1.63-0.09-3.331-0.85-5.075c-0.727-1.709-2.247-3.421-4.321-4.085
		c-2.046-0.704-4.389-0.227-5.94,1.002l-0.288,0.231l-0.136,0.117l-0.041,0.041l-0.083,0.081c-0.075,0.072-0.287,0.287-0.48,0.501
		c-0.348,0.398-0.59,0.758-0.825,1.166c-0.446,0.8-0.73,1.642-0.877,2.459c-0.289,1.642-0.137,3.195,0.269,4.641
		c0.322,1.116,0.787,2.187,1.487,3.174c-0.518,0.168-1.054,0.315-1.605,0.443c-3.23-28.213-30.161-50.23-62.905-50.23
		c-8.023,0-15.687,1.335-22.747,3.746c-11.934-7.07-25.994-10.039-25.994-10.039c-2.616-0.551-4.149,1.099-3.408,3.67l5.912,20.421
		c-6.449,6.117-11.373,13.509-14.215,21.709c-0.103,0.007-0.202-0.006-0.306,0.007l-9.804,1.226
		C-252.66,380.471-254.832,382.931-254.832,385.606z M-112.247,382.41c0.13-0.386,0.313-0.708,0.512-0.958
		c0.094-0.116,0.227-0.251,0.304-0.302c0.026-0.007,0.023-0.017,0.188-0.14l0.092-0.071l0.045-0.033l0.01-0.009
		c-0.002,0.002,0,0,0,0c-0.012,0.01-0.032,0.027-0.069,0.057l0.01-0.005l0.085-0.044c0.457-0.22,0.843-0.141,1.119,0.043
		c0.276,0.187,0.513,0.521,0.657,1.108c0.148,0.564,0.148,1.402-0.016,2.221c-0.297,1.405-1.065,2.412-2.285,3.294
		C-112.486,386.142-112.773,383.892-112.247,382.41z M-192.865,348.705c0.636-0.337,4.396-2.016,15.8-2.016
		c10.279,0,15.664,2.713,15.889,2.829c1.191,0.612,1.654,2.066,1.048,3.259c-0.429,0.844-1.287,1.329-2.173,1.329
		c-0.367,0-0.739-0.083-1.09-0.258c-0.047-0.022-4.695-2.295-13.675-2.295c-10.234,0-13.523,1.454-13.529,1.454l0,0
		c-1.188,0.629-2.658,0.173-3.286-1.015C-194.508,350.804-194.052,349.333-192.865,348.705z M-223.223,370.504
		c0-2.686,2.178-4.864,4.864-4.864c2.686,0,4.864,2.178,4.864,4.864s-2.178,4.864-4.864,4.864
		C-221.045,375.368-223.223,373.19-223.223,370.504z"/>
</g>
</svg>
